<svg width="76" height="42" viewBox="0 0 76 42" fill="none" xmlns="http://www.w3.org/2000/svg">
<g clip-path="url(#clip0_2_4)">
<rect width="76" height="42" fill="white"/>
<mask id="mask0_2_4" style="mask-type:alpha" maskUnits="userSpaceOnUse" x="47" y="22" width="16" height="17">
<path d="M55 22L62.7942 38.5H47.2058L55 22Z" fill="black"/>
</mask>
<g mask="url(#mask0_2_4)">
<rect x="41" y="18" width="24" height="10" fill="black"/>
</g>
<path d="M13.7262 6.74782C13.0346 5.24219 11.2534 4.58226 9.74782 5.27382C8.24219 5.96538 7.58226 7.74655 8.27382 9.25218L13.7262 6.74782ZM22.0236 32L19.2974 33.2522C19.7833 34.3099 20.8371 34.9911 22.001 34.9999C23.165 35.0087 24.2289 34.3434 24.7306 33.2931L22.0236 32ZM33.4882 8L36.1757 6.66683C35.6656 5.63863 34.6136 4.99156 33.4659 5.00008C32.3182 5.00861 31.2759 5.67123 30.7812 6.70689L33.4882 8ZM45.3937 32L42.7062 33.3332C43.2199 34.3687 44.2828 35.017 45.4386 34.9997C46.5944 34.9824 47.6374 34.3026 48.1199 33.2522L45.3937 32ZM56.4173 8L59.1623 6.78961C58.686 5.70951 57.6206 5.0091 56.4402 5.00009C55.2598 4.99107 54.1839 5.67512 53.6911 6.74782L56.4173 8ZM64.255 33.2104C64.9235 34.7264 66.6944 35.4135 68.2104 34.745C69.7264 34.0765 70.4135 32.3056 69.745 30.7896L64.255 33.2104ZM63.9134 25L66.6584 23.7896L66.6584 23.7896L63.9134 25ZM58 22H55V28H58V22ZM8.27382 9.25218L19.2974 33.2522L24.7498 30.7478L13.7262 6.74782L8.27382 9.25218ZM24.7306 33.2931L36.1952 9.29311L30.7812 6.70689L19.3166 30.7069L24.7306 33.2931ZM30.8007 9.33317L42.7062 33.3332L48.0812 30.6668L36.1757 6.66683L30.8007 9.33317ZM48.1199 33.2522L59.1435 9.25218L53.6911 6.74782L42.6675 30.7478L48.1199 33.2522ZM53.6723 9.21039L61.1684 26.2104L66.6584 23.7896L59.1623 6.78961L53.6723 9.21039ZM61.1684 26.2104L64.255 33.2104L69.745 30.7896L66.6584 23.7896L61.1684 26.2104ZM63.9134 22H58V28H63.9134V22Z" fill="black"/>
</g>
<defs>
<clipPath id="clip0_2_4">
<rect width="76" height="42" fill="white"/>
</clipPath>
</defs>
</svg>
